<?xml version="1.0" encoding="UTF-8" standalone="no"?>
<svg
   width="41.025047"
   height="40.34145"
   version="1.1"
   id="svg1"
   sodipodi:docname="github-mark.svg"
   inkscape:version="1.3 (0e150ed6c4, 2023-07-21)"
   xmlns:inkscape="http://www.inkscape.org/namespaces/inkscape"
   xmlns:sodipodi="http://sodipodi.sourceforge.net/DTD/sodipodi-0.dtd"
   xmlns="http://www.w3.org/2000/svg"
   xmlns:svg="http://www.w3.org/2000/svg">
  <defs
     id="defs1" />
  <sodipodi:namedview
     id="namedview1"
     pagecolor="#ffffff"
     bordercolor="#000000"
     borderopacity="0.25"
     inkscape:showpageshadow="2"
     inkscape:pageopacity="0.0"
     inkscape:pagecheckerboard="0"
     inkscape:deskcolor="#d1d1d1"
     inkscape:zoom="8.5520833"
     inkscape:cx="10.348356"
     inkscape:cy="35.605359"
     inkscape:window-width="1920"
     inkscape:window-height="1017"
     inkscape:window-x="-8"
     inkscape:window-y="-8"
     inkscape:window-maximized="1"
     inkscape:current-layer="svg1" />
  <path
     fill-rule="evenodd"
     clip-rule="evenodd"
     d="M 20.529507,0 C 9.1772202,0 0,9.2448762 0,20.68205 c 0,9.142341 5.8801609,16.881143 14.037503,19.620149 1.019879,0.205908 1.393455,-0.445014 1.393455,-0.992564 0,-0.479472 -0.03363,-2.122959 -0.03363,-3.835363 -5.7108038,1.23293 -6.900031,-2.46544 -6.900031,-2.46544 -0.9177644,-2.396946 -2.2776024,-3.01299 -2.2776024,-3.01299 -1.8691461,-1.266969 0.1361459,-1.266969 0.1361459,-1.266969 2.0733743,0.137007 3.1613279,2.122961 3.1613279,2.122961 1.8351076,3.14998 4.7922076,2.259953 5.9818556,1.711981 0.169767,-1.335463 0.713955,-2.259952 1.29176,-2.773463 -4.554782,-0.479471 -9.3469898,-2.259951 -9.3469898,-10.204242 0,-2.259951 0.8152289,-4.108927 2.1069916,-5.546924 -0.203802,-0.513511 -0.9177643,-2.636893 0.2042188,-5.4788503 0,0 1.7334144,-0.5479709 5.6418974,2.1229583 a 19.737812,19.737812 0 0 1 5.132585,-0.6849616 c 1.733415,0 3.500447,0.2399476 5.132169,0.6849616 3.908901,-2.6709292 5.642315,-2.1229583 5.642315,-2.1229583 1.121993,2.8419573 0.407616,4.9653393 0.203802,5.4788503 1.325801,1.437997 2.107413,3.286973 2.107413,5.546924 0,7.944291 -4.792206,9.690313 -9.381029,10.204242 0.747995,0.650506 1.393455,1.883014 1.393455,3.834945 0,2.773463 -0.03362,4.999376 -0.03362,5.68392 0,0.547968 0.373995,1.19889 1.393454,0.993403 C 35.144794,37.562775 41.024957,29.824391 41.024957,20.68205 41.058573,9.2448762 31.847735,0 20.529484,0 Z"
     fill="#24292f"
     id="path1"
     style="stroke-width:0.420221" />
</svg>
