<?xml version="1.0" encoding="UTF-8" standalone="no"?>
<svg
   id="Livello_1"
   data-name="Livello 1"
   viewBox="0 0 39.756393 39.756"
   version="1.1"
   sodipodi:docname="Telegram_logo.svg"
   width="39.756393"
   height="39.756001"
   inkscape:version="1.3 (0e150ed6c4, 2023-07-21)"
   xmlns:inkscape="http://www.inkscape.org/namespaces/inkscape"
   xmlns:sodipodi="http://sodipodi.sourceforge.net/DTD/sodipodi-0.dtd"
   xmlns="http://www.w3.org/2000/svg"
   xmlns:svg="http://www.w3.org/2000/svg"
   xmlns:rdf="http://www.w3.org/1999/02/22-rdf-syntax-ns#"
   xmlns:cc="http://creativecommons.org/ns#"
   xmlns:dc="http://purl.org/dc/elements/1.1/">
  <sodipodi:namedview
     id="namedview4"
     pagecolor="#ffffff"
     bordercolor="#000000"
     borderopacity="0.25"
     inkscape:showpageshadow="2"
     inkscape:pageopacity="0.0"
     inkscape:pagecheckerboard="0"
     inkscape:deskcolor="#d1d1d1"
     inkscape:zoom="3.4208333"
     inkscape:cx="120"
     inkscape:cy="120"
     inkscape:window-width="1920"
     inkscape:window-height="1017"
     inkscape:window-x="-8"
     inkscape:window-y="-8"
     inkscape:window-maximized="1"
     inkscape:current-layer="Livello_1" />
  <defs
     id="defs2">
    <linearGradient
       id="linear-gradient"
       x1="120"
       y1="240"
       x2="120"
       gradientUnits="userSpaceOnUse"
       gradientTransform="scale(0.16565164)">
      <stop
         offset="0"
         stop-color="#1d93d2"
         id="stop1" />
      <stop
         offset="1"
         stop-color="#38b0e3"
         id="stop2" />
    </linearGradient>
  </defs>
  <title
     id="title2">Telegram_logo</title>
  <circle
     cx="19.878197"
     cy="19.878197"
     r="19.878197"
     fill="url(#linear-gradient)"
     id="circle2"
     style="fill:url(#linear-gradient);stroke-width:0.165652" />
  <path
     d="m 13.455717,21.331294 2.358383,6.527668 c 0,0 0.29486,0.610758 0.610592,0.610758 0.315732,0 5.01179,-4.885398 5.01179,-4.885398 L 26.65865,13.497793 13.539868,19.646285 Z"
     fill="#c8daea"
     id="path2"
     style="stroke-width:0.165652" />
  <path
     d="m 16.582724,23.005369 -0.452726,4.811518 c 0,0 -0.189506,1.474299 1.284462,0 1.473969,-1.4743 2.884824,-2.611167 2.884824,-2.611167"
     fill="#a9c6d8"
     id="path3"
     style="stroke-width:0.165652" />
  <path
     d="M 13.49829,21.5642 8.6470158,19.983552 c 0,0 -0.5797807,-0.235226 -0.3930913,-0.768624 0.038431,-0.109993 0.1159561,-0.203586 0.3478684,-0.364433 1.0749136,-0.749243 19.8957561,-7.513959 19.8957561,-7.513959 0,0 0.531411,-0.179069 0.844824,-0.05997 a 0.45819245,0.45819245 0 0 1 0.312253,0.340414 1.5500024,1.5500024 0 0 1 0.04208,0.42821 c -0.0015,0.12457 -0.01657,0.240029 -0.028,0.421086 -0.11463,1.849501 -3.544945,15.652921 -3.544945,15.652921 0,0 -0.205242,0.807717 -0.94057,0.835381 a 1.3467479,1.3467479 0 0 1 -0.981486,-0.379673 c -1.442991,-1.241228 -6.430431,-4.593023 -7.532511,-5.330173 a 0.21037759,0.21037759 0 0 1 -0.09045,-0.149087 c -0.01541,-0.07769 0.06908,-0.173934 0.06908,-0.173934 0,0 8.684453,-7.719367 8.915537,-8.529734 0.01789,-0.06278 -0.0497,-0.09376 -0.140473,-0.06626 -0.576799,0.2122 -10.575863,6.526675 -11.679435,7.223571 A 0.53174178,0.53174178 0 0 1 13.49829,21.5642 Z"
     fill="#ffffff"
     id="path4"
     style="stroke-width:0.165652" />
  <metadata
     id="metadata4">
    <rdf:RDF>
      <cc:Work
         rdf:about="">
        <dc:title>Telegram_logo</dc:title>
      </cc:Work>
    </rdf:RDF>
  </metadata>
</svg>
